<svg width="25" height="18" viewBox="0 0 25 18" fill="none" xmlns="http://www.w3.org/2000/svg">
<path id="Vector" d="M21.25 6.5H20.625L16.3758 1.18828C16.1415 0.895541 15.8444 0.659222 15.5065 0.49681C15.1685 0.334397 14.7984 0.250047 14.4234 0.25H6.06758C5.04531 0.25 4.12617 0.872266 3.74648 1.82148L1.875 6.58828C0.798438 6.86719 0 7.83633 0 9V13.375C0 13.7203 0.279687 14 0.625 14H2.5C2.5 16.0711 4.17891 17.75 6.25 17.75C8.32109 17.75 10 16.0711 10 14H15C15 16.0711 16.6789 17.75 18.75 17.75C20.8211 17.75 22.5 16.0711 22.5 14H24.375C24.7203 14 25 13.7203 25 13.375V10.25C25 8.17891 23.3211 6.5 21.25 6.5ZM6.25 15.875C5.21602 15.875 4.375 15.034 4.375 14C4.375 12.966 5.21602 12.125 6.25 12.125C7.28398 12.125 8.125 12.966 8.125 14C8.125 15.034 7.28398 15.875 6.25 15.875ZM9.0625 6.5H4.56758L6.06758 2.75H9.0625V6.5ZM10.9375 6.5V2.75H14.4234L17.4234 6.5H10.9375ZM18.75 15.875C17.716 15.875 16.875 15.034 16.875 14C16.875 12.966 17.716 12.125 18.75 12.125C19.784 12.125 20.625 12.966 20.625 14C20.625 15.034 19.784 15.875 18.75 15.875Z" fill="#C5D4D4"/>
</svg>
