<svg width="23" height="20" viewBox="0 0 23 20" fill="none" xmlns="http://www.w3.org/2000/svg">
<path id="Vector" d="M12.3175 0.327272C12.2144 0.224192 12.0888 0.141831 11.9486 0.0854722C11.8085 0.0291132 11.657 0 11.5037 0C11.3505 0 11.199 0.0291132 11.0588 0.0854722C10.9187 0.141831 10.7931 0.224192 10.69 0.327272L0.793391 10.3236C0.647456 10.4666 0.550752 10.6453 0.515197 10.8377C0.479643 11.0301 0.506792 11.2278 0.593299 11.4063C0.679806 11.5848 0.821889 11.7365 1.00203 11.8425C1.18218 11.9485 1.39252 12.0043 1.60711 12.003H3.80636V19.0004C3.80636 19.2655 3.92221 19.5197 4.12843 19.7072C4.33465 19.8947 4.61435 20 4.90598 20H18.1015C18.3931 20 18.6728 19.8947 18.879 19.7072C19.0852 19.5197 19.2011 19.2655 19.2011 19.0004V12.003H21.4003C21.692 12.003 21.9717 11.8976 22.1779 11.7102C22.3841 11.5227 22.5 11.2684 22.5 11.0033C22.502 10.7521 22.3999 10.5095 22.2141 10.3236L12.3175 0.327272Z" fill="#266062"/>
</svg>
