<svg width="107" height="98" viewBox="0 0 107 98" fill="none" xmlns="http://www.w3.org/2000/svg">
<path id="logo" fill-rule="evenodd" clip-rule="evenodd" d="M55.682 0.415706C56.3635 0.689816 56.9745 1.09039 57.4758 1.59173L105.609 50.2101C106.513 51.1142 107.01 52.2945 107 53.5162C107 54.8056 106.436 56.0422 105.433 56.954C104.43 57.8658 103.07 58.378 101.652 58.378H90.9553V92.4109C90.9553 93.7003 90.3919 94.937 89.3889 95.8487C88.3859 96.7605 87.0256 97.2727 85.6072 97.2727H21.4291C20.0107 97.2727 18.6504 96.7605 17.6474 95.8487C16.6444 94.937 16.0809 93.7003 16.0809 92.4109V58.378H5.38459C4.34087 58.3845 3.31788 58.1132 2.44172 57.5975C1.56555 57.0819 0.87451 56.3444 0.453773 55.4761C0.0330348 54.6078 -0.0990103 53.6465 0.0739142 52.7108C0.246839 51.7751 0.717174 50.9058 1.42695 50.2101L49.5605 1.59173C50.0618 1.09039 50.6728 0.689816 51.3543 0.415706C52.0358 0.141596 52.7729 0 53.5181 0C54.2634 0 55.0004 0.141596 55.682 0.415706ZM47.9292 49.3645C47.9292 46.2579 47.0692 43.7436 45.3492 41.8214C43.6293 39.8799 41.3742 38.9091 38.5841 38.9091C35.794 38.9091 33.5294 39.8799 31.7903 41.8214C30.0512 43.7436 29.1817 46.2579 29.1817 49.3645C29.1817 52.471 30.0512 54.995 31.7903 56.9366C33.5294 58.8782 35.794 59.8489 38.5841 59.8489C41.3551 59.8489 43.6006 58.8782 45.3206 56.9366C47.0596 54.995 47.9292 52.471 47.9292 49.3645ZM41.1927 53.4126C40.5429 54.4222 39.6734 54.9271 38.5841 54.9271C37.4757 54.9271 36.587 54.4222 35.9182 53.4126C35.2684 52.403 34.9435 51.0439 34.9435 49.3353C34.9435 47.6267 35.2684 46.2774 35.9182 45.2872C36.5679 44.297 37.4566 43.8019 38.5841 43.8019C39.7116 43.8019 40.5907 44.297 41.2214 45.2872C41.8711 46.2579 42.196 47.6073 42.196 49.3353C42.196 51.0439 41.8616 52.403 41.1927 53.4126ZM33.2236 81.8081H40.2754L53.175 62.0332L69.1132 39.7828H62.0901L48.9038 59.8489L33.2236 81.8081ZM70.3458 79.7986C72.0849 77.857 72.9544 75.3233 72.9544 72.1973C72.9544 69.0908 72.0849 66.5765 70.3458 64.6543C68.6259 62.7128 66.3804 61.742 63.6094 61.742C60.8192 61.742 58.5546 62.7128 56.8156 64.6543C55.0956 66.5765 54.2356 69.0908 54.2356 72.1973C54.2356 75.3038 55.0956 77.8279 56.8156 79.7695C58.5546 81.711 60.8192 82.6818 63.6094 82.6818C66.3804 82.6818 68.6259 81.7207 70.3458 79.7986ZM66.218 76.2455C65.5682 77.2551 64.6987 77.7599 63.6094 77.7599C62.501 77.7599 61.6123 77.2648 60.9434 76.2746C60.2937 75.265 59.9688 73.9059 59.9688 72.1973C59.9688 70.4888 60.2937 69.1394 60.9434 68.1492C61.6123 67.1395 62.501 66.6347 63.6094 66.6347C64.7369 66.6347 65.616 67.1298 66.2466 68.12C66.8964 69.1102 67.2213 70.4693 67.2213 72.1973C67.2213 73.8865 66.8868 75.2359 66.218 76.2455Z" fill="#266062"/>
</svg>
