<svg width="21" height="20" viewBox="0 0 21 20" fill="none" xmlns="http://www.w3.org/2000/svg">
<path id="Vector" d="M10.1667 0C4.66675 0 0.166748 4.5 0.166748 10C0.166748 15.5 4.66675 20 10.1667 20C15.6667 20 20.1667 15.5 20.1667 10C20.1667 4.5 15.6667 0 10.1667 0ZM6.99675 5.05C7.97675 5.05 8.76675 5.84 8.76675 6.83C8.76675 7.81 7.97675 8.6 6.99675 8.6C6.00675 8.6 5.21675 7.81 5.21675 6.83C5.21675 5.84 6.00675 5.05 6.99675 5.05ZM13.3867 15C12.4067 15 11.6167 14.2 11.6167 13.22C11.6167 12.24 12.4067 11.45 13.3867 11.45C14.3667 11.45 15.1667 12.24 15.1667 13.22C15.1667 14.2 14.3667 15 13.3867 15ZM6.66675 15.03L5.16675 13.53L13.6967 5L15.1967 6.5L6.66675 15.03Z" fill="#BDBDBD"/>
</svg>
