<svg width="20" height="17" viewBox="0 0 20 17" fill="none" xmlns="http://www.w3.org/2000/svg">
<path id="Vector" d="M18 0.5H2C0.897 0.5 0 1.397 0 2.5V14.5C0 15.603 0.897 16.5 2 16.5H18C19.103 16.5 20 15.603 20 14.5V2.5C20 1.397 19.103 0.5 18 0.5ZM3 5C3 4.86739 3.05268 4.74021 3.14645 4.64645C3.24021 4.55268 3.36739 4.5 3.5 4.5H6.5C6.63261 4.5 6.75979 4.55268 6.85355 4.64645C6.94732 4.74021 7 4.86739 7 5V7C7 7.13261 6.94732 7.25979 6.85355 7.35355C6.75979 7.44732 6.63261 7.5 6.5 7.5H3.5C3.36739 7.5 3.24021 7.44732 3.14645 7.35355C3.05268 7.25979 3 7.13261 3 7V5ZM9 12.5H3V10.5H9V12.5ZM17 12.5H11V10.5H17V12.5Z" fill="#266062"/>
</svg>
