<svg width="21" height="20" viewBox="0 0 21 20" fill="none" xmlns="http://www.w3.org/2000/svg">
<path id="Vector" d="M10.5 17.2C8 17.2 5.79 15.92 4.5 14C4.53 12 8.5 10.9 10.5 10.9C12.5 10.9 16.47 12 16.5 14C15.21 15.92 13 17.2 10.5 17.2ZM10.5 3C11.2956 3 12.0587 3.31607 12.6213 3.87868C13.1839 4.44129 13.5 5.20435 13.5 6C13.5 6.79565 13.1839 7.55871 12.6213 8.12132C12.0587 8.68393 11.2956 9 10.5 9C9.70435 9 8.94129 8.68393 8.37868 8.12132C7.81607 7.55871 7.5 6.79565 7.5 6C7.5 5.20435 7.81607 4.44129 8.37868 3.87868C8.94129 3.31607 9.70435 3 10.5 3ZM10.5 0C9.18678 0 7.88642 0.258658 6.67317 0.761205C5.45991 1.26375 4.35752 2.00035 3.42893 2.92893C1.55357 4.8043 0.5 7.34784 0.5 10C0.5 12.6522 1.55357 15.1957 3.42893 17.0711C4.35752 17.9997 5.45991 18.7362 6.67317 19.2388C7.88642 19.7413 9.18678 20 10.5 20C13.1522 20 15.6957 18.9464 17.5711 17.0711C19.4464 15.1957 20.5 12.6522 20.5 10C20.5 4.47 16 0 10.5 0Z" fill="#BDBDBD"/>
</svg>
